#!OML:ASF H:\Terrain\Patient Classification 1\Walking\liu\liu.ASF
:FULLY-SPECIFIED
:DEGREES
372
root 9.329240 17.067900 16.087799 6.215480 4.075100 -2.843470
lowerback -2.876955 0.113530 -0.051341
upperback -0.358505 0.118586 1.377790
thorax 1.237975 0.053487 1.459015
lowerneck -9.925050 -3.116350 -6.266350
upperneck 10.676050 -4.023600 6.239700
head 5.633400 -1.616650 2.705285
rclavicle 0.000000 -0.000000
rhumerus -16.737900 9.090850 -42.006550
rradius 22.167999
rwrist -11.477300
rhand -15.635850 -11.748850
rfingers 3.562510
rthumb -2.272750 -26.714451
lclavicle 0.000000 -0.000000
lhumerus -23.330650 -9.113700 48.977299
lradius 14.219000
lwrist 6.394200
lhand -7.583000 -11.391700
lfingers 3.562510
lthumb 5.502350 3.454090
rfemur -6.656100 2.940460 14.430600
rtibia 14.690550
rfoot -9.542900 1.529125
rtoes -7.729150
lfemur -17.460350 2.760135 -9.056200
ltibia 28.246300
lfoot -7.548650 6.012200
ltoes -1.472810
373
root 9.335530 17.071100 16.211201 6.204580 3.722040 -3.124440
lowerback -2.883425 0.212089 0.090207
upperback -0.339781 0.240097 1.394175
thorax 1.255675 0.115180 1.405805
lowerneck -9.993050 -3.123185 -6.227950
upperneck 10.745000 -4.050700 6.262000
head 5.675800 -1.620445 2.704650
rclavicle -0.000000 0.000000
rhumerus -16.472700 9.159450 -41.985649
rradius 22.185650
rwrist -11.626050
rhand -15.645400 -11.894750
rfingers 3.562510
rthumb -2.281955 -26.860201
lclavicle -0.000000 0.000000
lhumerus -23.433950 -8.893900 48.799500
lradius 14.128000
lwrist 6.097100
lhand -7.313500 -11.185050
lfingers 3.562510
lthumb 5.762250 3.646530
rfemur -6.272650 3.083275 14.591400
rtibia 14.375500
rfoot -9.619600 1.579110
rtoes -7.075900
lfemur -17.857550 2.748650 -8.944050
ltibia 27.580400
lfoot -7.464000 5.907700
ltoes -1.620225
374
root 9.340160 17.078699 16.335300 6.158800 3.261220 -3.226030
lowerback -2.804045 0.341345 0.129937
upperback -0.369996 0.412105 1.400175
thorax 1.172405 0.202099 1.401135
lowerneck -10.018900 -3.124400 -6.210050
upperneck 10.899300 -4.050565 6.189100
head 5.734000 -1.625815 2.678795
rclavicle 0.000000 0.000000
rhumerus -16.356251 9.016750 -41.917599
rradius 22.254749
rwrist -11.586100
rhand -15.563250 -12.048850
rfingers 3.562510
rthumb -2.202620 -27.015949
lclavicle 0.000000 0.000000
lhumerus -23.627850 -8.690050 48.725750
lradius 14.027550
lwrist 6.109250
lhand -7.059700 -11.174800
lfingers 3.562510
lthumb 6.007000 3.642765
rfemur -5.826750 3.212420 14.673850
rtibia 13.984200
rfoot -9.756200 1.559945
rtoes -7.872000
lfemur -18.183001 2.771610 -8.972200
ltibia 26.872549
lfoot -7.345150 6.018050
ltoes -2.831775
375
root 9.346940 17.093800 16.462400 6.061770 2.835320 -3.080400
lowerback -2.843400 0.405641 0.018090
upperback -0.324411 0.502765 1.404205
thorax 1.235175 0.245561 1.476605
lowerneck -9.987250 -3.097225 -6.234000
upperneck 10.965250 -4.004885 6.156650
head 5.745150 -1.611905 2.680965
rclavicle -0.000000 -0.000000
rhumerus -16.181549 8.986100 -41.851452
rradius 22.350950
rwrist -11.475150
rhand -15.602850 -12.168400
rfingers 3.562510
rthumb -2.240900 -27.134701
lclavicle -0.000000 -0.000000
lhumerus -23.711950 -8.290000 48.513401
lradius 13.897450
lwrist 5.798950
lhand -6.872800 -11.221000
lfingers 3.562510
lthumb 6.187200 3.585900
rfemur -5.306200 3.136470 14.615650
rtibia 13.560800
rfoot -9.782100 1.660220
rtoes -8.409150
lfemur -18.433451 2.703435 -9.101900
ltibia 26.113649
lfoot -7.442100 5.916450
ltoes -3.319600
376
root 9.356920 17.104200 16.584000 5.974960 2.576230 -3.307910
lowerback -2.865195 0.439183 0.122263
upperback -0.278399 0.538395 1.439245
thorax 1.294295 0.263497 1.458110
lowerneck -9.922700 -3.053000 -6.291700
upperneck 10.948900 -3.963720 6.283300
head 5.729350 -1.585770 2.747300
rclavicle -0.000000 0.000000
rhumerus -15.917850 9.077050 -41.840752
rradius 22.331301
rwrist -11.430950
rhand -15.677850 -12.193900
rfingers 3.562510
rthumb -2.313295 -27.158649
lclavicle -0.000000 0.000000
lhumerus -23.734751 -7.902250 48.237450
lradius 13.744300
lwrist 5.421900
lhand -6.715050 -11.294600
lfingers 3.562510
lthumb 6.339300 3.502970
rfemur -4.812885 3.036115 14.749150
rtibia 13.142400
rfoot -9.749400 1.835460
rtoes -6.815300
lfemur -18.731649 2.597305 -8.963000
ltibia 25.324900
lfoot -7.588200 5.546300
ltoes -3.009710
377
root 9.366740 17.112600 16.701099 6.007220 2.400520 -3.507220
lowerback -2.864640 0.507440 0.248881
upperback -0.241895 0.619945 1.454595
thorax 1.330055 0.305036 1.409610
lowerneck -9.952550 -3.046015 -6.332300
upperneck 10.913550 -3.946065 6.330900
head 5.723500 -1.574715 2.774395
rclavicle 0.000000 0.000000
rhumerus -15.575350 9.152000 -41.784149
rradius 22.244900
rwrist -11.531450
rhand -15.788350 -12.340750
rfingers 3.562510
rthumb -2.420015 -27.303101
lclavicle 0.000000 0.000000
lhumerus -23.755650 -7.739350 48.152248
lradius 13.637600
lwrist 5.529200
lhand -6.712400 -11.408400
lfingers 3.562510
lthumb 6.341850 3.389000
rfemur -4.335885 2.973260 14.863250
rtibia 12.650600
rfoot -9.492800 1.976320
rtoes -7.389950
lfemur -19.076851 2.500095 -8.875600
ltibia 24.531900
lfoot -7.625250 5.375950
ltoes -3.761555
378
root 9.375350 17.122601 16.834000 5.917740 2.227430 -3.476490
lowerback -2.899570 0.569335 0.235701
upperback -0.157283 0.700430 1.447125
thorax 1.433215 0.343947 1.418155
lowerneck -10.077200 -3.094590 -6.309250
upperneck 10.919450 -3.994095 6.278550
head 5.753700 -1.596115 2.740990
rclavicle -0.000000 -0.000000
rhumerus -15.283950 9.210950 -41.721149
rradius 22.275249
rwrist -11.669000
rhand -15.946150 -12.993500
rfingers 3.562510
rthumb -2.572380 -27.952299
lclavicle -0.000000 -0.000000
lhumerus -23.728399 -7.421800 47.948200
lradius 13.532800
lwrist 5.244050
lhand -6.598700 -11.391550
lfingers 3.562510
lthumb 6.451450 3.398995
rfemur -3.751190 2.846125 14.874400
rtibia 12.191700
rfoot -9.389100 1.978070
rtoes -8.062650
lfemur -19.237600 2.398195 -8.938950
ltibia 23.703051
lfoot -7.549350 5.281050
ltoes -5.040350
379
root 9.371390 17.108200 16.968800 5.667760 1.918170 -4.235390
lowerback -2.835845 0.641140 0.517425
upperback -0.136878 0.775190 1.574145
thorax 1.419295 0.384117 1.395895
lowerneck -9.984050 -3.107975 -6.307250
upperneck 10.905450 -4.022965 6.275000
head 5.734400 -1.612630 2.734300
rclavicle -0.000000 -0.000000
rhumerus -15.175450 9.255450 -41.733150
rradius 22.317699
rwrist -11.667500
rhand -15.964800 -13.098350
rfingers 3.562510
rthumb -2.590390 -28.056700
lclavicle -0.000000 -0.000000
lhumerus -23.822399 -6.865050 47.616650
lradius 13.419750
lwrist 4.613360
lhand -6.359900 -11.250900
lfingers 3.562510
lthumb 6.681650 3.524850
rfemur -3.153320 3.019900 15.392350
rtibia 11.794050
rfoot -9.507500 1.692200
rtoes -9.421350
lfemur -19.356750 2.400155 -8.506800
ltibia 22.895050
lfoot -7.437200 5.133450
ltoes -6.056400
380
root 9.393360 17.094101 17.078699 5.935350 1.779150 -4.187030
lowerback -2.878280 0.684800 0.556080
upperback -0.250419 0.833535 1.567010
thorax 1.324835 0.414519 1.370185
lowerneck -9.768550 -3.084005 -6.352150
upperneck 10.924500 -3.992150 6.239450
head 5.694950 -1.614000 2.735855
rclavicle -0.000000 -0.000000
rhumerus -15.100900 9.206400 -41.702850
rradius 22.266600
rwrist -11.577050
rhand -15.807700 -12.217800
rfingers 3.562510
rthumb -2.438710 -27.179701
lclavicle -0.000000 -0.000000
lhumerus -24.105101 -6.663250 47.649448
lradius 13.350150
lwrist 4.667670
lhand -6.364350 -11.010250
lfingers 3.562510
lthumb 6.677350 3.765745
rfemur -2.914615 2.852310 15.310600
rtibia 11.381450
rfoot -9.363800 2.039575
rtoes -7.136150
lfemur -19.711149 2.254150 -8.604850
ltibia 22.031000
lfoot -7.284650 5.117150
ltoes -7.377200
